<svg id="Layer_1" fill="#ddd" enable-background="new 0 0 56 50" height="512" viewBox="0 0 56 50" width="512" xmlns="http://www.w3.org/2000/svg">
    <path d="m5.03 12h-5v38h56v-38h-5zm31.999 20.262-12.951 7.521c-.32.187-.671.279-1.023.279-.349 0-.698-.092-1.017-.275-.631-.363-1.008-1.012-1.008-1.735v-15.042c0-.724.377-1.372 1.008-1.735.629-.363 1.412-.36 2.04.003l12.951 7.522c.627.363 1.001 1.011 1.001 1.731 0 .719-.374 1.366-1.001 1.731z" />
    <path d="m23.03 38.051v.004l12.994-7.524-12.951-7.525z" />
    <path d="m12.03 0h32v4h-32z" />
    <path d="m50.03 6h-5-34-5v4h44z" />
</svg>